<svg width="41" height="40" viewBox="0 0 41 40" fill="none" xmlns="http://www.w3.org/2000/svg">
<path d="M33.6976 16.8217C33.6976 16.8217 28.771 19.6381 31.9821 28.4735C34.8338 36.3202 24.6122 37.3864 20.6381 35.7331C15.4901 33.5914 13.7927 26.1869 9.25472 27.4986C4.71671 28.8102 2.63773 18.2516 9.33192 15.8866C17.6592 12.9446 13.425 9.38559 14.757 6.25557C15.713 4.00913 23.2575 1.77231 26.0849 6.65407C28.464 10.7621 30.232 9.82607 31.7381 9.64943C33.9102 9.39457 37.6436 13.784 33.6976 16.8217Z" fill="#EAEAEA"/>
<path d="M21.002 16.2176C21.002 16.2176 13.2239 24.9544 13.134 25.9233C13.134 25.9233 13.4854 26.0789 13.8772 26.5332C14.3308 27.0589 14.8744 27.2596 15.1466 27.1115C15.5388 26.8983 15.5051 26.6048 15.5051 26.6048L21.5081 28.7793C21.5081 28.7793 23.6281 28.1145 27.9274 23.633L29.071 21.999L21.002 16.2176Z" fill="#303030"/>
<path d="M12.0887 17.4797C12.0887 17.4797 13.046 18.1664 14.1901 17.519L17.7884 15.4537C17.7884 15.4537 19.0136 14.5495 20.2736 15.4193C20.2736 15.4193 19.1288 18.1998 21.4872 18.6757C21.4872 18.6757 23.7888 19.7305 25.0067 20.8134C25.619 21.3582 26.9287 22.2822 27.5514 22.8039C27.7185 22.9438 28.0604 23.1528 28.2338 23.3624C28.4747 23.6535 28.935 24.2881 28.1964 24.9038C28.1964 24.9038 27.7042 25.4821 26.7179 24.8735C25.8013 24.3078 24.2032 22.9958 23.2346 22.3855C23.1821 22.3524 22.942 22.3035 23.2769 22.6301C23.6899 23.0327 25.6189 24.4586 25.6189 24.4586C25.6189 24.4586 26.3404 24.9596 26.5118 25.2139C26.6623 25.437 26.8941 25.9268 26.4626 26.4587C26.4626 26.4587 25.8498 27.2664 24.7993 26.6246L22.3873 24.9409C22.3873 24.9409 21.8744 24.6098 22.2868 25.093C22.2868 25.093 24.7347 26.8129 24.8309 27.0746C25.1054 27.8206 24.5743 28.7801 23.3815 28.3169L20.6179 26.8059C20.6179 26.8059 20.3653 26.769 20.5721 26.9705C20.5721 26.9705 23.1362 28.2938 23.3138 28.4391C23.5462 28.6292 22.982 29.5254 21.8131 29.1665C20.1459 28.6547 16.7761 27.7333 15.1465 27.1115C14.5732 26.8928 13.3955 26.3084 12.9416 26.0337C12.9416 26.0337 11.1208 24.8878 8.62744 24.8402L10.4238 17.1835L12.0887 17.4797Z" fill="#979797"/>
<path d="M14.8739 27.6276C14.8739 27.6276 15.4004 26.9321 15.7259 26.6805C16.3862 26.1703 17.5776 26.6647 17.6354 27.29C17.6354 27.29 17.8923 27.9044 16.8272 28.8105C16.6303 28.9779 16.0046 29.3758 15.0897 28.6239C15.0896 28.624 14.5438 28.122 14.8739 27.6276Z" fill="#303030"/>
<path d="M15.929 21.4451C15.929 21.4451 17.4546 22.6534 19.0339 19.059C19.0339 19.059 19.8742 19.3518 21.1797 18.5947L21.4517 18.1717C21.4517 18.1717 18.8002 18.4539 18.8119 18.506C18.8236 18.5581 15.929 21.4451 15.929 21.4451Z" fill="#303030"/>
<path d="M17.1425 28.9878C17.1237 28.5266 17.7704 27.6803 18.0534 27.3816C18.3869 27.0296 19.7001 26.6931 19.8526 28.0911C19.8526 28.0911 19.7712 29.0708 19.0418 29.6293C18.695 29.895 17.1822 29.9658 17.1425 28.9878Z" fill="#303030"/>
<path d="M20.0858 28.2901C20.3093 27.9347 21.4171 27.7651 21.4418 28.7859C21.4512 29.1724 21.2498 29.8095 20.6758 30.0621C20.2586 30.2456 19.1572 29.9469 19.3665 29.4993C19.5103 29.1916 19.5806 29.0933 20.0858 28.2901Z" fill="#303030"/>
<path d="M12.9164 26.7162C13.0127 26.5046 13.1717 26.3017 13.4893 26.0458C13.6815 25.8911 14.2215 25.831 14.5463 26.0338C14.7793 26.1795 15.2388 26.5208 15.1358 26.8244C14.9399 27.4012 14.6078 28.1828 13.8888 27.9569C13.8888 27.9569 12.4872 27.6595 12.9164 26.7162Z" fill="#303030"/>
<path d="M11.8015 16.7262L10.334 26.2662L5.62183 25.3593L7.71021 15.641L11.8015 16.7262Z" fill="#303030"/>
<path d="M13.4353 26.3947C13.4353 26.3947 13.2049 27.0484 13.6139 27.323C13.6139 27.323 14.1403 27.9547 14.7919 26.9112C14.9005 26.7373 14.6577 26.4304 14.2277 26.3157C14.2277 26.3157 13.8203 26.1587 13.4353 26.3947Z" fill="#E7E7E7"/>
<path d="M15.5206 27.5701C15.5206 27.5701 15.7888 26.9698 16.0166 26.8776C16.2512 26.7826 16.956 26.7673 17.2521 27.4596C17.3031 27.5787 17.1191 27.8273 17.0363 27.9591C16.8837 28.2024 16.4896 28.5666 16.0315 28.3165C16.0315 28.3164 15.4454 28.1048 15.5206 27.5701Z" fill="#E7E7E7"/>
<path d="M17.9186 28.0839C17.9823 27.9095 18.2293 27.5917 18.4541 27.5693C18.8238 27.5325 19.6777 27.8067 19.4521 28.3534C19.4521 28.3534 19.2583 28.817 18.8426 28.9251C18.8426 28.9251 18.1216 29.1836 17.8549 28.5127C17.8148 28.4119 17.8817 28.1857 17.9186 28.0839Z" fill="#E7E7E7"/>
<path d="M19.8766 29.1324C19.983 29.3979 20.4396 29.6724 20.7183 29.4193C20.8313 29.3169 21.064 28.9741 21.0767 28.8222C21.0981 28.5653 20.5925 28.0229 20.1496 28.528C20.0451 28.6473 19.8176 28.9852 19.8766 29.1324Z" fill="#E7E7E7"/>
<path d="M22.0444 15.1717C22.0444 15.1717 20.5025 14.6854 19.3231 15.8695L17.3462 17.0799C17.3462 17.0799 16.503 17.3595 16.2422 18.4876L15.3442 20.3548C15.3442 20.3548 14.6187 21.6359 16.7344 21.4605C16.7344 21.4605 17.9454 20.9487 18.9068 19.0042L18.9001 18.756C18.9001 18.756 19.0371 19.0622 19.7359 18.9392C19.7359 18.9392 20.4576 18.6894 21.4557 18.3589C21.4557 18.3589 21.6177 18.556 22.5766 19.0826C22.5766 19.0826 24.9209 20.3092 25.4659 20.9632L28.2744 23.1007C28.2744 23.1007 28.7104 22.9266 29.7953 21.2395L32.2159 20.3791L29.6764 13.4508C29.6764 13.4508 25.8101 14.965 24.6747 15.0782L22.0444 15.1717Z" fill="#383838"/>
<path d="M27.9866 13.6193L31.3316 21.4938L34.8912 20.1123L31.3945 12.1418L27.9866 13.6193Z" fill="#979797"/>
<path d="M15.79 19.4273C15.79 19.4273 16.6398 19.1057 16.8903 19.6939C16.8903 19.6939 16.6322 20.7427 16.3417 20.9752C16.1172 21.1552 15.3717 21.2289 15.2251 20.8451C15.2251 20.8451 15.1329 20.4497 15.79 19.4273Z" fill="#E7E7E7"/>
<path d="M23.4519 19.5651C23.4519 19.5651 25.0326 20.2144 26.6294 18.9352C26.6294 18.9352 25.5325 20.4134 24.056 19.922L23.4519 19.5651Z" fill="#303030"/>
<path d="M8.73803 24.4286C8.74835 24.5319 8.7278 24.636 8.67896 24.7277C8.63013 24.8194 8.5552 24.8945 8.46367 24.9436C8.37214 24.9926 8.2681 25.0135 8.16473 25.0034C8.06135 24.9934 7.96328 24.9529 7.88291 24.8871C7.80255 24.8213 7.74349 24.7332 7.71322 24.6338C7.68296 24.5345 7.68283 24.4284 7.71286 24.3289C7.7429 24.2295 7.80174 24.1412 7.88195 24.0753C7.96216 24.0093 8.06014 23.9686 8.16349 23.9583C8.30204 23.9445 8.4404 23.9863 8.54814 24.0745C8.65588 24.1627 8.72418 24.29 8.73803 24.4286Z" fill="white"/>
<path d="M33.1681 19.3456C33.1784 19.4489 33.1578 19.5529 33.1089 19.6446C33.0601 19.7362 32.9852 19.8113 32.8937 19.8603C32.8021 19.9094 32.6981 19.9302 32.5948 19.9202C32.4914 19.9101 32.3934 19.8696 32.313 19.8039C32.2327 19.7381 32.1737 19.65 32.1434 19.5506C32.1131 19.4513 32.113 19.3452 32.143 19.2458C32.173 19.1464 32.2319 19.0582 32.312 18.9922C32.3922 18.9262 32.4902 18.8855 32.5935 18.8752C32.6621 18.8683 32.7314 18.8751 32.7974 18.895C32.8634 18.9149 32.9249 18.9477 32.9782 18.9914C33.0316 19.035 33.0758 19.0888 33.1084 19.1496C33.1409 19.2104 33.1612 19.2769 33.1681 19.3456Z" fill="white"/>
</svg>
